<svg xmlns="http://www.w3.org/2000/svg" xmlns:xlink="http://www.w3.org/1999/xlink" width="500" zoomAndPan="magnify" viewBox="0 0 375 374.999991" height="500" preserveAspectRatio="xMidYMid meet" version="1.0"><defs><g/><clipPath id="74720c8a05"><path d="M 37.5 142.28125 L 100 142.28125 L 100 200 L 37.5 200 Z M 37.5 142.28125 " clip-rule="nonzero"/></clipPath><clipPath id="b16a602da3"><path d="M 69 151 L 101.25 151 L 101.25 233 L 69 233 Z M 69 151 " clip-rule="nonzero"/></clipPath></defs><g clip-path="url(#74720c8a05)"><path fill="#0eb1d2" d="M 66.890625 171.835938 C 66.890625 171.835938 56.492188 161.582031 37.5 157.03125 C 37.5 157.03125 61.332031 172.632812 67.398438 199.0625 C 67.398438 199.0625 79.386719 156.597656 99.316406 142.445312 C 99.316406 142.445312 76.0625 154.289062 66.890625 171.835938 Z M 66.890625 171.835938 " fill-opacity="1" fill-rule="nonzero"/></g><path fill="#0eb1d2" d="M 54.605469 162.132812 L 55.257812 160.757812 C 55.257812 160.757812 55.257812 160.757812 56.917969 161.625 C 55.550781 159.90625 54.683594 156.59375 54.289062 154.765625 L 58.191406 154.765625 C 57.886719 155.578125 57.714844 156.453125 57.714844 157.363281 C 57.714844 161.472656 61.046875 164.804688 65.15625 164.804688 C 69.261719 164.804688 72.59375 161.472656 72.59375 157.363281 C 72.59375 155.335938 71.78125 153.503906 70.464844 152.160156 L 77.066406 147.257812 L 60.890625 147.257812 L 50.777344 154.765625 L 53.707031 154.765625 C 53.214844 158.019531 54.605469 162.132812 54.605469 162.132812 Z M 54.605469 162.132812 " fill-opacity="1" fill-rule="nonzero"/><g clip-path="url(#b16a602da3)"><path fill="#db7c26" d="M 101.132812 175.644531 C 101.132812 175.644531 97.234375 162.894531 95.867188 151.589844 C 79.511719 168.265625 69.613281 202.816406 69.503906 203.199219 L 69.148438 204.453125 C 71.667969 211.734375 73.871094 220.699219 75.269531 231.671875 C 75.269531 231.679688 75.269531 231.683594 75.269531 231.683594 C 75.269531 232.160156 75.660156 232.554688 76.140625 232.554688 C 76.621094 232.554688 77.011719 232.160156 77.011719 231.683594 C 77.246094 230 83.027344 189.300781 101.132812 175.644531 Z M 101.132812 175.644531 " fill-opacity="1" fill-rule="nonzero"/></g><g fill="#3a4a3d" fill-opacity="1"><g transform="translate(101.133257, 207.678985)"><g><path d="M 4.515625 -0.359375 C 4.515625 -0.421875 4.550781 -0.453125 4.625 -0.453125 L 4.9375 -0.453125 C 5.675781 -0.453125 6.269531 -0.609375 6.71875 -0.921875 C 7.164062 -1.242188 7.390625 -1.617188 7.390625 -2.046875 L 7.390625 -14.578125 C 7.390625 -14.734375 7.359375 -14.820312 7.296875 -14.84375 C 7.234375 -14.863281 7.15625 -14.882812 7.0625 -14.90625 L 2.71875 -14.90625 C 2.019531 -14.75 1.5625 -14.207031 1.34375 -13.28125 C 1.21875 -12.78125 1.144531 -12.457031 1.125 -12.3125 C 1.101562 -12.175781 1.0625 -12.109375 1 -12.109375 L 0.796875 -12.109375 C 0.742188 -12.109375 0.71875 -12.125 0.71875 -12.15625 L 0.71875 -12.53125 L 1.140625 -16.0625 C 1.191406 -16.300781 1.269531 -16.421875 1.375 -16.421875 C 1.476562 -16.421875 1.585938 -16.34375 1.703125 -16.1875 C 1.828125 -16.039062 2.0625 -15.96875 2.40625 -15.96875 L 14.609375 -15.96875 C 14.941406 -15.96875 15.140625 -16.003906 15.203125 -16.078125 C 15.273438 -16.160156 15.335938 -16.238281 15.390625 -16.3125 C 15.453125 -16.382812 15.53125 -16.421875 15.625 -16.421875 C 15.71875 -16.421875 15.773438 -16.378906 15.796875 -16.296875 C 15.828125 -16.222656 15.851562 -16.144531 15.875 -16.0625 L 16.296875 -12.53125 L 16.296875 -12.15625 C 16.296875 -12.125 16.269531 -12.109375 16.21875 -12.109375 L 16.015625 -12.109375 C 15.953125 -12.109375 15.910156 -12.164062 15.890625 -12.28125 C 15.773438 -13.039062 15.601562 -13.640625 15.375 -14.078125 C 15.144531 -14.515625 14.785156 -14.789062 14.296875 -14.90625 L 9.9375 -14.90625 C 9.84375 -14.882812 9.765625 -14.863281 9.703125 -14.84375 C 9.640625 -14.820312 9.609375 -14.734375 9.609375 -14.578125 L 9.609375 -2.046875 C 9.609375 -1.617188 9.832031 -1.242188 10.28125 -0.921875 C 10.726562 -0.609375 11.320312 -0.453125 12.0625 -0.453125 L 12.390625 -0.453125 C 12.453125 -0.453125 12.484375 -0.421875 12.484375 -0.359375 L 12.484375 -0.09375 C 12.484375 -0.03125 12.453125 0 12.390625 0 L 4.609375 0 C 4.546875 0 4.515625 -0.03125 4.515625 -0.09375 Z M 4.515625 -0.359375 "/></g></g></g><g fill="#3a4a3d" fill-opacity="1"><g transform="translate(119.310893, 207.678985)"><g><path d="M 6.03125 -0.09375 C 6.03125 -0.03125 6 0 5.9375 0 L 0.140625 0 C 0.0859375 0 0.0625 -0.03125 0.0625 -0.09375 L 0.0625 -0.359375 C 0.0625 -0.421875 0.109375 -0.453125 0.203125 -0.453125 C 1.234375 -0.492188 1.929688 -1.046875 2.296875 -2.109375 L 6.921875 -15.484375 C 6.929688 -15.503906 6.9375 -15.523438 6.9375 -15.546875 L 6.8125 -15.921875 C 6.8125 -15.953125 6.828125 -15.96875 6.859375 -15.96875 L 9.125 -15.96875 C 9.132812 -15.96875 9.148438 -15.960938 9.171875 -15.953125 C 9.203125 -15.941406 9.226562 -15.921875 9.25 -15.890625 L 14.03125 -2.4375 C 14.144531 -2.226562 14.234375 -2.039062 14.296875 -1.875 C 14.359375 -1.707031 14.429688 -1.554688 14.515625 -1.421875 C 14.691406 -1.117188 14.988281 -0.882812 15.40625 -0.71875 C 15.75 -0.539062 16.066406 -0.453125 16.359375 -0.453125 C 16.421875 -0.453125 16.453125 -0.414062 16.453125 -0.34375 L 16.453125 -0.09375 C 16.453125 -0.03125 16.421875 0 16.359375 0 L 9.421875 0 C 9.359375 0 9.328125 -0.03125 9.328125 -0.09375 L 9.328125 -0.359375 C 9.328125 -0.421875 9.46875 -0.457031 9.75 -0.46875 C 10.03125 -0.488281 10.265625 -0.503906 10.453125 -0.515625 C 11.492188 -0.628906 12.015625 -0.988281 12.015625 -1.59375 C 12.015625 -1.632812 12.007812 -1.6875 12 -1.75 L 10.28125 -6.578125 C 10.28125 -6.585938 10.265625 -6.617188 10.234375 -6.671875 C 10.148438 -6.929688 9.992188 -7.0625 9.765625 -7.0625 L 5.75 -7.0625 C 5.519531 -7.0625 5.34375 -6.9375 5.21875 -6.6875 C 5.1875 -6.632812 5.171875 -6.601562 5.171875 -6.59375 L 3.484375 -1.625 L 3.484375 -1.515625 C 3.484375 -1.316406 3.582031 -1.140625 3.78125 -0.984375 C 4.238281 -0.628906 4.859375 -0.453125 5.640625 -0.453125 L 5.9375 -0.453125 C 6 -0.453125 6.03125 -0.421875 6.03125 -0.359375 Z M 9.375 -8.3125 C 9.507812 -8.3125 9.578125 -8.367188 9.578125 -8.484375 C 9.578125 -8.546875 9.566406 -8.613281 9.546875 -8.6875 L 7.84375 -13.328125 C 7.769531 -13.535156 7.71875 -13.640625 7.6875 -13.640625 C 7.644531 -13.640625 7.582031 -13.535156 7.5 -13.328125 L 5.921875 -8.6875 C 5.890625 -8.613281 5.875 -8.53125 5.875 -8.4375 C 5.875 -8.351562 5.925781 -8.3125 6.03125 -8.3125 Z M 9.375 -8.3125 "/></g></g></g><g fill="#3a4a3d" fill-opacity="1"><g transform="translate(136.978694, 207.678985)"><g><path d="M 0.546875 0 C 0.484375 0 0.453125 -0.03125 0.453125 -0.09375 L 0.453125 -0.359375 C 0.453125 -0.421875 0.484375 -0.453125 0.546875 -0.453125 L 0.8125 -0.453125 C 1.46875 -0.453125 2.035156 -0.585938 2.515625 -0.859375 C 2.710938 -0.972656 2.875 -1.148438 3 -1.390625 C 3.125 -1.628906 3.1875 -1.894531 3.1875 -2.1875 L 3.1875 -14.171875 C 3.1875 -14.640625 2.882812 -15 2.28125 -15.25 C 1.863281 -15.425781 1.414062 -15.515625 0.9375 -15.515625 L 0.6875 -15.515625 C 0.625 -15.515625 0.59375 -15.546875 0.59375 -15.609375 L 0.59375 -15.890625 C 0.59375 -15.941406 0.625 -15.96875 0.6875 -15.96875 L 8.359375 -15.96875 C 8.421875 -15.96875 8.453125 -15.941406 8.453125 -15.890625 L 8.453125 -15.609375 C 8.453125 -15.546875 8.421875 -15.515625 8.359375 -15.515625 L 7.875 -15.515625 C 7.09375 -15.515625 6.40625 -15.40625 5.8125 -15.1875 C 5.632812 -15.132812 5.519531 -15.035156 5.46875 -14.890625 C 5.425781 -14.753906 5.40625 -14.515625 5.40625 -14.171875 L 5.40625 -1.609375 C 5.414062 -1.484375 5.484375 -1.363281 5.609375 -1.25 C 5.734375 -1.132812 5.867188 -1.078125 6.015625 -1.078125 L 10.484375 -1.078125 C 11.160156 -1.078125 11.820312 -1.472656 12.46875 -2.265625 C 12.644531 -2.472656 12.859375 -2.753906 13.109375 -3.109375 C 13.367188 -3.460938 13.53125 -3.660156 13.59375 -3.703125 C 13.832031 -3.890625 13.953125 -3.882812 13.953125 -3.6875 C 13.953125 -3.644531 13.941406 -3.601562 13.921875 -3.5625 L 12.21875 -0.203125 C 12.144531 -0.0664062 12.0625 0 11.96875 0 Z M 0.546875 0 "/></g></g></g><g fill="#3a4a3d" fill-opacity="1"><g transform="translate(152.176633, 207.678985)"><g><path d="M 0.078125 -0.09375 L 0.078125 -0.40625 C 0.078125 -0.46875 0.109375 -0.5 0.171875 -0.5 L 0.421875 -0.5 C 0.734375 -0.519531 1.054688 -0.53125 1.390625 -0.53125 C 1.722656 -0.539062 2.023438 -0.582031 2.296875 -0.65625 C 2.921875 -0.832031 3.234375 -1.285156 3.234375 -2.015625 L 3.234375 -13.953125 C 3.234375 -14.703125 2.789062 -15.179688 1.90625 -15.390625 C 1.65625 -15.441406 1.398438 -15.484375 1.140625 -15.515625 L 0.90625 -15.515625 C 0.84375 -15.515625 0.8125 -15.546875 0.8125 -15.609375 L 0.8125 -15.890625 C 0.8125 -15.941406 0.84375 -15.96875 0.90625 -15.96875 L 11.6875 -15.96875 C 11.820312 -15.96875 11.914062 -15.941406 11.96875 -15.890625 C 12.03125 -15.847656 12.070312 -15.742188 12.09375 -15.578125 L 12.296875 -12.296875 C 12.296875 -12.210938 12.238281 -12.171875 12.125 -12.171875 C 12.007812 -12.171875 11.925781 -12.207031 11.875 -12.28125 C 11.832031 -12.351562 11.773438 -12.628906 11.703125 -13.109375 C 11.628906 -13.585938 11.5 -13.984375 11.3125 -14.296875 C 11.125 -14.617188 10.789062 -14.820312 10.3125 -14.90625 L 5.578125 -14.90625 C 5.484375 -14.90625 5.4375 -14.851562 5.4375 -14.75 L 5.4375 -8.890625 C 5.4375 -8.816406 5.472656 -8.78125 5.546875 -8.78125 L 9.46875 -8.78125 C 10.476562 -8.78125 10.984375 -9.367188 10.984375 -10.546875 C 10.984375 -10.609375 11.015625 -10.640625 11.078125 -10.640625 L 11.359375 -10.640625 C 11.410156 -10.640625 11.4375 -10.609375 11.4375 -10.546875 L 11.4375 -5.703125 C 11.4375 -5.640625 11.410156 -5.609375 11.359375 -5.609375 L 11.078125 -5.609375 C 11.015625 -5.609375 10.984375 -5.640625 10.984375 -5.703125 C 10.984375 -6.816406 10.660156 -7.460938 10.015625 -7.640625 C 9.835938 -7.679688 9.644531 -7.703125 9.4375 -7.703125 L 5.546875 -7.703125 C 5.472656 -7.703125 5.4375 -7.664062 5.4375 -7.59375 L 5.4375 -2.078125 C 5.4375 -1.503906 5.695312 -1.179688 6.21875 -1.109375 C 6.375 -1.085938 6.535156 -1.078125 6.703125 -1.078125 L 10.46875 -1.078125 C 11.25 -1.078125 11.851562 -1.421875 12.28125 -2.109375 C 12.59375 -2.597656 12.78125 -3.160156 12.84375 -3.796875 C 12.863281 -4.003906 12.976562 -4.109375 13.1875 -4.109375 C 13.28125 -4.109375 13.328125 -4.0625 13.328125 -3.96875 L 12.953125 -0.15625 C 12.898438 -0.0507812 12.847656 0 12.796875 0 L 0.171875 0 C 0.109375 0 0.078125 -0.03125 0.078125 -0.09375 Z M 0.078125 -0.09375 "/></g></g></g><g fill="#3a4a3d" fill-opacity="1"><g transform="translate(167.65781, 207.678985)"><g><path d="M 0.078125 -0.09375 L 0.078125 -0.40625 C 0.078125 -0.46875 0.109375 -0.5 0.171875 -0.5 L 0.421875 -0.5 C 0.734375 -0.519531 1.054688 -0.53125 1.390625 -0.53125 C 1.722656 -0.539062 2.023438 -0.582031 2.296875 -0.65625 C 2.921875 -0.832031 3.234375 -1.285156 3.234375 -2.015625 L 3.234375 -13.953125 C 3.234375 -14.703125 2.789062 -15.179688 1.90625 -15.390625 C 1.65625 -15.441406 1.398438 -15.484375 1.140625 -15.515625 L 0.90625 -15.515625 C 0.84375 -15.515625 0.8125 -15.546875 0.8125 -15.609375 L 0.8125 -15.890625 C 0.8125 -15.941406 0.84375 -15.96875 0.90625 -15.96875 L 11.6875 -15.96875 C 11.820312 -15.96875 11.914062 -15.941406 11.96875 -15.890625 C 12.03125 -15.847656 12.070312 -15.742188 12.09375 -15.578125 L 12.296875 -12.296875 C 12.296875 -12.210938 12.238281 -12.171875 12.125 -12.171875 C 12.007812 -12.171875 11.925781 -12.207031 11.875 -12.28125 C 11.832031 -12.351562 11.773438 -12.628906 11.703125 -13.109375 C 11.628906 -13.585938 11.5 -13.984375 11.3125 -14.296875 C 11.125 -14.617188 10.789062 -14.820312 10.3125 -14.90625 L 5.578125 -14.90625 C 5.484375 -14.90625 5.4375 -14.851562 5.4375 -14.75 L 5.4375 -8.890625 C 5.4375 -8.816406 5.472656 -8.78125 5.546875 -8.78125 L 9.46875 -8.78125 C 10.476562 -8.78125 10.984375 -9.367188 10.984375 -10.546875 C 10.984375 -10.609375 11.015625 -10.640625 11.078125 -10.640625 L 11.359375 -10.640625 C 11.410156 -10.640625 11.4375 -10.609375 11.4375 -10.546875 L 11.4375 -5.703125 C 11.4375 -5.640625 11.410156 -5.609375 11.359375 -5.609375 L 11.078125 -5.609375 C 11.015625 -5.609375 10.984375 -5.640625 10.984375 -5.703125 C 10.984375 -6.816406 10.660156 -7.460938 10.015625 -7.640625 C 9.835938 -7.679688 9.644531 -7.703125 9.4375 -7.703125 L 5.546875 -7.703125 C 5.472656 -7.703125 5.4375 -7.664062 5.4375 -7.59375 L 5.4375 -2.078125 C 5.4375 -1.503906 5.695312 -1.179688 6.21875 -1.109375 C 6.375 -1.085938 6.535156 -1.078125 6.703125 -1.078125 L 10.46875 -1.078125 C 11.25 -1.078125 11.851562 -1.421875 12.28125 -2.109375 C 12.59375 -2.597656 12.78125 -3.160156 12.84375 -3.796875 C 12.863281 -4.003906 12.976562 -4.109375 13.1875 -4.109375 C 13.28125 -4.109375 13.328125 -4.0625 13.328125 -3.96875 L 12.953125 -0.15625 C 12.898438 -0.0507812 12.847656 0 12.796875 0 L 0.171875 0 C 0.109375 0 0.078125 -0.03125 0.078125 -0.09375 Z M 0.078125 -0.09375 "/></g></g></g><g fill="#3a4a3d" fill-opacity="1"><g transform="translate(183.138987, 207.678985)"><g><path d="M 5.671875 -0.453125 C 5.722656 -0.453125 5.75 -0.421875 5.75 -0.359375 L 5.75 -0.09375 C 5.75 -0.03125 5.722656 0 5.671875 0 L 0.390625 0 C 0.328125 0 0.296875 -0.03125 0.296875 -0.09375 L 0.296875 -0.359375 C 0.296875 -0.421875 0.328125 -0.453125 0.390625 -0.453125 C 1.628906 -0.453125 2.300781 -0.984375 2.40625 -2.046875 C 2.4375 -2.359375 2.46875 -2.875 2.5 -3.59375 C 2.53125 -4.3125 2.628906 -5.863281 2.796875 -8.25 C 2.960938 -10.632812 3.046875 -12.5625 3.046875 -14.03125 L 3.046875 -14.453125 C 3.046875 -14.753906 2.875 -15.003906 2.53125 -15.203125 C 2.1875 -15.410156 1.9375 -15.515625 1.78125 -15.515625 C 1.625 -15.515625 1.546875 -15.546875 1.546875 -15.609375 L 1.546875 -15.890625 C 1.546875 -15.941406 1.570312 -15.96875 1.625 -15.96875 L 4.90625 -15.96875 C 5.050781 -15.945312 5.164062 -15.863281 5.25 -15.71875 L 10.578125 -3.890625 C 10.609375 -3.835938 10.632812 -3.789062 10.65625 -3.75 C 10.675781 -3.707031 10.734375 -3.6875 10.828125 -3.6875 C 10.921875 -3.695312 10.988281 -3.765625 11.03125 -3.890625 L 16.296875 -15.515625 C 16.453125 -15.816406 16.59375 -15.96875 16.71875 -15.96875 L 20.015625 -15.96875 C 20.078125 -15.96875 20.109375 -15.941406 20.109375 -15.890625 L 20.109375 -15.609375 C 20.109375 -15.546875 20.085938 -15.515625 20.046875 -15.515625 C 19.828125 -15.515625 19.550781 -15.441406 19.21875 -15.296875 C 18.707031 -15.066406 18.453125 -14.726562 18.453125 -14.28125 L 19.140625 -1.765625 C 19.148438 -1.367188 19.351562 -1.050781 19.75 -0.8125 C 20.144531 -0.570312 20.65625 -0.453125 21.28125 -0.453125 C 21.34375 -0.453125 21.375 -0.421875 21.375 -0.359375 L 21.375 -0.09375 C 21.375 -0.03125 21.34375 0 21.28125 0 L 14.859375 0 C 14.796875 0 14.765625 -0.03125 14.765625 -0.09375 L 14.765625 -0.359375 C 14.765625 -0.421875 14.796875 -0.453125 14.859375 -0.453125 C 16.203125 -0.453125 16.875 -0.78125 16.875 -1.4375 L 16.28125 -12.265625 C 16.269531 -12.335938 16.25 -12.375 16.21875 -12.375 C 16.1875 -12.375 16.160156 -12.335938 16.140625 -12.265625 L 10.5 -0.078125 C 10.46875 -0.0234375 10.378906 0 10.234375 0 C 10.097656 0 10.019531 -0.03125 10 -0.09375 L 4.4375 -12.296875 C 4.394531 -12.410156 4.351562 -12.46875 4.3125 -12.46875 C 4.269531 -12.46875 4.25 -12.382812 4.25 -12.21875 C 4.25 -11.863281 4.15625 -10.222656 3.96875 -7.296875 C 3.789062 -4.367188 3.703125 -2.539062 3.703125 -1.8125 L 3.703125 -1.34375 C 3.796875 -0.914062 4.222656 -0.640625 4.984375 -0.515625 C 5.203125 -0.472656 5.429688 -0.453125 5.671875 -0.453125 Z M 5.671875 -0.453125 "/></g></g></g><g fill="#3a4a3d" fill-opacity="1"><g transform="translate(206.154387, 207.678985)"><g><path d="M 9.375 -6.546875 L 9.375 -5 L 0.96875 -5 L 0.96875 -6.546875 Z M 9.375 -6.546875 "/></g></g></g><g fill="#db7c26" fill-opacity="1"><g transform="translate(217.664499, 207.678985)"><g><path d="M 14.53125 -0.96875 C 13.863281 -0.570312 13.140625 -0.257812 12.359375 -0.03125 C 11.585938 0.195312 10.898438 0.3125 10.296875 0.3125 C 9.054688 0.3125 7.875 0.109375 6.75 -0.296875 C 5.207031 -0.859375 3.96875 -1.6875 3.03125 -2.78125 C 1.84375 -4.175781 1.25 -5.945312 1.25 -8.09375 C 1.25 -9.632812 1.644531 -11.039062 2.4375 -12.3125 C 3.226562 -13.59375 4.320312 -14.601562 5.71875 -15.34375 C 7.125 -16.082031 8.632812 -16.453125 10.25 -16.453125 C 11.863281 -16.453125 13.304688 -16.09375 14.578125 -15.375 C 15.859375 -14.65625 16.882812 -13.664062 17.65625 -12.40625 C 18.425781 -11.15625 18.8125 -9.800781 18.8125 -8.34375 C 18.8125 -6.882812 18.425781 -5.492188 17.65625 -4.171875 C 16.894531 -2.859375 15.851562 -1.789062 14.53125 -0.96875 Z M 3.625 -8.453125 C 3.625 -7.203125 3.898438 -5.957031 4.453125 -4.71875 C 5.015625 -3.476562 5.8125 -2.46875 6.84375 -1.6875 C 7.875 -0.914062 9.070312 -0.53125 10.4375 -0.53125 C 12.363281 -0.53125 13.867188 -1.269531 14.953125 -2.75 C 15.929688 -4.09375 16.421875 -5.800781 16.421875 -7.875 C 16.421875 -9.945312 15.820312 -11.738281 14.625 -13.25 C 14.039062 -13.976562 13.328125 -14.5625 12.484375 -15 C 11.648438 -15.445312 10.800781 -15.671875 9.9375 -15.671875 C 9.082031 -15.671875 8.378906 -15.578125 7.828125 -15.390625 C 7.285156 -15.203125 6.789062 -14.941406 6.34375 -14.609375 C 5.894531 -14.273438 5.5 -13.878906 5.15625 -13.421875 C 4.820312 -12.972656 4.539062 -12.488281 4.3125 -11.96875 C 3.851562 -10.875 3.625 -9.703125 3.625 -8.453125 Z M 3.625 -8.453125 "/></g></g></g><g fill="#3a4a3d" fill-opacity="1"><g transform="translate(238.887158, 207.678985)"><g><path d="M 9.375 -6.546875 L 9.375 -5 L 0.96875 -5 L 0.96875 -6.546875 Z M 9.375 -6.546875 "/></g></g></g><g fill="#3a4a3d" fill-opacity="1"><g transform="translate(250.391629, 207.678985)"><g><path d="M 4.515625 -0.359375 C 4.515625 -0.421875 4.550781 -0.453125 4.625 -0.453125 L 4.9375 -0.453125 C 5.675781 -0.453125 6.269531 -0.609375 6.71875 -0.921875 C 7.164062 -1.242188 7.390625 -1.617188 7.390625 -2.046875 L 7.390625 -14.578125 C 7.390625 -14.734375 7.359375 -14.820312 7.296875 -14.84375 C 7.234375 -14.863281 7.15625 -14.882812 7.0625 -14.90625 L 2.71875 -14.90625 C 2.019531 -14.75 1.5625 -14.207031 1.34375 -13.28125 C 1.21875 -12.78125 1.144531 -12.457031 1.125 -12.3125 C 1.101562 -12.175781 1.0625 -12.109375 1 -12.109375 L 0.796875 -12.109375 C 0.742188 -12.109375 0.71875 -12.125 0.71875 -12.15625 L 0.71875 -12.53125 L 1.140625 -16.0625 C 1.191406 -16.300781 1.269531 -16.421875 1.375 -16.421875 C 1.476562 -16.421875 1.585938 -16.34375 1.703125 -16.1875 C 1.828125 -16.039062 2.0625 -15.96875 2.40625 -15.96875 L 14.609375 -15.96875 C 14.941406 -15.96875 15.140625 -16.003906 15.203125 -16.078125 C 15.273438 -16.160156 15.335938 -16.238281 15.390625 -16.3125 C 15.453125 -16.382812 15.53125 -16.421875 15.625 -16.421875 C 15.71875 -16.421875 15.773438 -16.378906 15.796875 -16.296875 C 15.828125 -16.222656 15.851562 -16.144531 15.875 -16.0625 L 16.296875 -12.53125 L 16.296875 -12.15625 C 16.296875 -12.125 16.269531 -12.109375 16.21875 -12.109375 L 16.015625 -12.109375 C 15.953125 -12.109375 15.910156 -12.164062 15.890625 -12.28125 C 15.773438 -13.039062 15.601562 -13.640625 15.375 -14.078125 C 15.144531 -14.515625 14.785156 -14.789062 14.296875 -14.90625 L 9.9375 -14.90625 C 9.84375 -14.882812 9.765625 -14.863281 9.703125 -14.84375 C 9.640625 -14.820312 9.609375 -14.734375 9.609375 -14.578125 L 9.609375 -2.046875 C 9.609375 -1.617188 9.832031 -1.242188 10.28125 -0.921875 C 10.726562 -0.609375 11.320312 -0.453125 12.0625 -0.453125 L 12.390625 -0.453125 C 12.453125 -0.453125 12.484375 -0.421875 12.484375 -0.359375 L 12.484375 -0.09375 C 12.484375 -0.03125 12.453125 0 12.390625 0 L 4.609375 0 C 4.546875 0 4.515625 -0.03125 4.515625 -0.09375 Z M 4.515625 -0.359375 "/></g></g></g><g fill="#3a4a3d" fill-opacity="1"><g transform="translate(268.569265, 207.678985)"><g><path d="M 6.03125 -0.09375 C 6.03125 -0.03125 6 0 5.9375 0 L 0.140625 0 C 0.0859375 0 0.0625 -0.03125 0.0625 -0.09375 L 0.0625 -0.359375 C 0.0625 -0.421875 0.109375 -0.453125 0.203125 -0.453125 C 1.234375 -0.492188 1.929688 -1.046875 2.296875 -2.109375 L 6.921875 -15.484375 C 6.929688 -15.503906 6.9375 -15.523438 6.9375 -15.546875 L 6.8125 -15.921875 C 6.8125 -15.953125 6.828125 -15.96875 6.859375 -15.96875 L 9.125 -15.96875 C 9.132812 -15.96875 9.148438 -15.960938 9.171875 -15.953125 C 9.203125 -15.941406 9.226562 -15.921875 9.25 -15.890625 L 14.03125 -2.4375 C 14.144531 -2.226562 14.234375 -2.039062 14.296875 -1.875 C 14.359375 -1.707031 14.429688 -1.554688 14.515625 -1.421875 C 14.691406 -1.117188 14.988281 -0.882812 15.40625 -0.71875 C 15.75 -0.539062 16.066406 -0.453125 16.359375 -0.453125 C 16.421875 -0.453125 16.453125 -0.414062 16.453125 -0.34375 L 16.453125 -0.09375 C 16.453125 -0.03125 16.421875 0 16.359375 0 L 9.421875 0 C 9.359375 0 9.328125 -0.03125 9.328125 -0.09375 L 9.328125 -0.359375 C 9.328125 -0.421875 9.46875 -0.457031 9.75 -0.46875 C 10.03125 -0.488281 10.265625 -0.503906 10.453125 -0.515625 C 11.492188 -0.628906 12.015625 -0.988281 12.015625 -1.59375 C 12.015625 -1.632812 12.007812 -1.6875 12 -1.75 L 10.28125 -6.578125 C 10.28125 -6.585938 10.265625 -6.617188 10.234375 -6.671875 C 10.148438 -6.929688 9.992188 -7.0625 9.765625 -7.0625 L 5.75 -7.0625 C 5.519531 -7.0625 5.34375 -6.9375 5.21875 -6.6875 C 5.1875 -6.632812 5.171875 -6.601562 5.171875 -6.59375 L 3.484375 -1.625 L 3.484375 -1.515625 C 3.484375 -1.316406 3.582031 -1.140625 3.78125 -0.984375 C 4.238281 -0.628906 4.859375 -0.453125 5.640625 -0.453125 L 5.9375 -0.453125 C 6 -0.453125 6.03125 -0.421875 6.03125 -0.359375 Z M 9.375 -8.3125 C 9.507812 -8.3125 9.578125 -8.367188 9.578125 -8.484375 C 9.578125 -8.546875 9.566406 -8.613281 9.546875 -8.6875 L 7.84375 -13.328125 C 7.769531 -13.535156 7.71875 -13.640625 7.6875 -13.640625 C 7.644531 -13.640625 7.582031 -13.535156 7.5 -13.328125 L 5.921875 -8.6875 C 5.890625 -8.613281 5.875 -8.53125 5.875 -8.4375 C 5.875 -8.351562 5.925781 -8.3125 6.03125 -8.3125 Z M 9.375 -8.3125 "/></g></g></g><g fill="#3a4a3d" fill-opacity="1"><g transform="translate(286.237068, 207.678985)"><g><path d="M 0.59375 0 C 0.53125 0 0.5 -0.078125 0.5 -0.234375 L 0.5 -0.359375 C 0.5 -0.421875 0.53125 -0.453125 0.59375 -0.453125 C 0.632812 -0.453125 0.703125 -0.457031 0.796875 -0.46875 C 0.898438 -0.488281 1.003906 -0.503906 1.109375 -0.515625 C 1.210938 -0.535156 1.3125 -0.550781 1.40625 -0.5625 C 1.5 -0.582031 1.5625 -0.597656 1.59375 -0.609375 C 2.363281 -0.785156 2.75 -1.222656 2.75 -1.921875 L 2.75 -13.890625 C 2.75 -14.535156 2.488281 -14.992188 1.96875 -15.265625 C 1.65625 -15.429688 1.320312 -15.515625 0.96875 -15.515625 L 0.546875 -15.515625 C 0.484375 -15.515625 0.453125 -15.546875 0.453125 -15.609375 L 0.453125 -15.890625 C 0.453125 -15.941406 0.5 -15.96875 0.59375 -15.96875 L 6.8125 -16.140625 L 7.953125 -16.140625 C 9.285156 -16.054688 10.40625 -15.570312 11.3125 -14.6875 C 12.21875 -13.8125 12.671875 -12.726562 12.671875 -11.4375 C 12.671875 -10.144531 12.132812 -9.140625 11.0625 -8.421875 C 10.726562 -8.203125 10.367188 -8.007812 9.984375 -7.84375 L 13.421875 -2.234375 C 14.015625 -1.253906 14.8125 -0.5625 15.8125 -0.15625 C 15.894531 -0.132812 15.9375 -0.0820312 15.9375 0 C 15.9375 0.1875 15.8125 0.28125 15.5625 0.28125 C 13.863281 0.28125 12.515625 -0.363281 11.515625 -1.65625 C 11.296875 -1.9375 11.078125 -2.253906 10.859375 -2.609375 L 7.921875 -7.21875 L 5.21875 -7.34375 L 5.125 -7.34375 C 5.019531 -7.34375 4.96875 -7.289062 4.96875 -7.1875 L 4.96875 -1.953125 C 4.96875 -1.546875 5.082031 -1.238281 5.3125 -1.03125 C 5.550781 -0.820312 5.957031 -0.679688 6.53125 -0.609375 C 6.675781 -0.585938 6.859375 -0.554688 7.078125 -0.515625 C 7.296875 -0.472656 7.441406 -0.453125 7.515625 -0.453125 C 7.597656 -0.453125 7.640625 -0.421875 7.640625 -0.359375 L 7.640625 -0.09375 C 7.640625 -0.03125 7.613281 0 7.5625 0 Z M 5.875 -15.546875 C 5.789062 -15.546875 5.695312 -15.539062 5.59375 -15.53125 C 5.488281 -15.53125 5.359375 -15.523438 5.203125 -15.515625 C 5.046875 -15.515625 4.96875 -15.457031 4.96875 -15.34375 L 4.96875 -8.46875 L 4.984375 -8.140625 C 5.003906 -7.972656 5.078125 -7.890625 5.203125 -7.890625 L 6.359375 -7.8125 C 8.484375 -7.8125 9.765625 -8.566406 10.203125 -10.078125 C 10.335938 -10.554688 10.40625 -11.101562 10.40625 -11.71875 C 10.40625 -12.90625 10.035156 -13.84375 9.296875 -14.53125 C 8.554688 -15.21875 7.609375 -15.5625 6.453125 -15.5625 C 6.335938 -15.5625 6.234375 -15.5625 6.140625 -15.5625 C 6.054688 -15.5625 5.96875 -15.554688 5.875 -15.546875 Z M 5.875 -15.546875 "/></g></g></g><g fill="#3a4a3d" fill-opacity="1"><g transform="translate(303.474341, 207.678985)"><g><path d="M 0.203125 0 C 0.140625 0 0.109375 -0.03125 0.109375 -0.09375 L 0.109375 -0.359375 C 0.109375 -0.421875 0.160156 -0.453125 0.265625 -0.453125 C 0.617188 -0.453125 1.015625 -0.488281 1.453125 -0.5625 C 2.835938 -0.800781 3.53125 -1.28125 3.53125 -2 L 3.53125 -13.953125 C 3.445312 -14.910156 3.003906 -15.429688 2.203125 -15.515625 C 1.953125 -15.546875 1.679688 -15.5625 1.390625 -15.5625 L 0.75 -15.5625 C 0.6875 -15.5625 0.65625 -15.59375 0.65625 -15.65625 L 0.65625 -15.9375 C 0.65625 -16 0.6875 -16.03125 0.75 -16.03125 L 1.25 -16.046875 L 3.1875 -16.046875 L 7.234375 -16.171875 C 11.546875 -16.171875 13.703125 -14.894531 13.703125 -12.34375 C 13.703125 -11.269531 13.144531 -10.375 12.03125 -9.65625 C 11.851562 -9.539062 11.703125 -9.457031 11.578125 -9.40625 C 11.453125 -9.351562 11.382812 -9.320312 11.375 -9.3125 C 12.375 -8.75 13.15625 -8.117188 13.71875 -7.421875 C 14.289062 -6.734375 14.578125 -5.90625 14.578125 -4.9375 C 14.578125 -2.875 13.601562 -1.441406 11.65625 -0.640625 C 10.65625 -0.210938 9.566406 0 8.390625 0 Z M 5.9375 -8.84375 C 5.84375 -8.84375 5.796875 -8.800781 5.796875 -8.71875 L 5.796875 -2.5 C 5.796875 -1.96875 6.046875 -1.535156 6.546875 -1.203125 C 7.046875 -0.878906 7.585938 -0.71875 8.171875 -0.71875 C 9.285156 -0.71875 10.234375 -1.113281 11.015625 -1.90625 C 11.804688 -2.707031 12.203125 -3.691406 12.203125 -4.859375 C 12.203125 -6.023438 11.78125 -6.976562 10.9375 -7.71875 C 10.09375 -8.46875 9.023438 -8.84375 7.734375 -8.84375 Z M 5.765625 -9.75 C 5.765625 -9.613281 5.851562 -9.546875 6.03125 -9.546875 L 8.8125 -9.546875 C 9.539062 -9.546875 10.148438 -9.8125 10.640625 -10.34375 C 11.140625 -10.875 11.390625 -11.472656 11.390625 -12.140625 C 11.390625 -13.328125 11.050781 -14.1875 10.375 -14.71875 C 9.707031 -15.25 8.8125 -15.515625 7.6875 -15.515625 C 7.351562 -15.492188 7.117188 -15.484375 6.984375 -15.484375 C 6.847656 -15.484375 6.707031 -15.484375 6.5625 -15.484375 C 6.425781 -15.492188 6.285156 -15.488281 6.140625 -15.46875 C 5.992188 -15.445312 5.894531 -15.394531 5.84375 -15.3125 C 5.789062 -15.238281 5.765625 -15.113281 5.765625 -14.9375 Z M 5.765625 -9.75 "/></g></g></g><g fill="#3a4a3d" fill-opacity="1"><g transform="translate(320.405713, 207.678985)"><g><path d="M 2.859375 -14.15625 C 2.859375 -15.0625 2.335938 -15.515625 1.296875 -15.515625 C 1.128906 -15.515625 1.046875 -15.546875 1.046875 -15.609375 L 1.046875 -15.890625 C 1.046875 -15.941406 1.078125 -15.96875 1.140625 -15.96875 L 6.8125 -15.96875 C 6.875 -15.96875 6.90625 -15.941406 6.90625 -15.890625 L 6.90625 -15.609375 C 6.90625 -15.546875 6.738281 -15.515625 6.40625 -15.515625 C 6.070312 -15.515625 5.765625 -15.410156 5.484375 -15.203125 C 5.203125 -14.992188 5.0625 -14.5625 5.0625 -13.90625 L 5.0625 -1.8125 C 5.0625 -0.90625 5.585938 -0.453125 6.640625 -0.453125 C 6.796875 -0.453125 6.875 -0.421875 6.875 -0.359375 L 6.875 -0.09375 C 6.875 -0.03125 6.84375 0 6.78125 0 L 1.109375 0 C 1.046875 0 1.015625 -0.03125 1.015625 -0.09375 L 1.015625 -0.359375 C 1.015625 -0.421875 1.179688 -0.453125 1.515625 -0.453125 C 1.847656 -0.453125 2.15625 -0.554688 2.4375 -0.765625 C 2.71875 -0.984375 2.859375 -1.421875 2.859375 -2.078125 Z M 2.859375 -14.15625 "/></g></g></g><g fill="#3a4a3d" fill-opacity="1"><g transform="translate(329.485638, 207.678985)"><g><path d="M 5.953125 0 C 5.703125 0 5.578125 -0.078125 5.578125 -0.234375 L 5.578125 -0.34375 C 5.578125 -0.457031 5.6875 -0.523438 5.90625 -0.546875 C 6.132812 -0.578125 6.28125 -0.597656 6.34375 -0.609375 C 6.914062 -0.671875 7.316406 -0.8125 7.546875 -1.03125 C 7.785156 -1.257812 7.90625 -1.597656 7.90625 -2.046875 L 7.90625 -5.796875 C 7.90625 -5.847656 7.894531 -5.898438 7.875 -5.953125 L 3.234375 -13.34375 C 2.515625 -14.5 1.800781 -15.164062 1.09375 -15.34375 C 1.050781 -15.351562 0.976562 -15.367188 0.875 -15.390625 C 0.78125 -15.410156 0.566406 -15.445312 0.234375 -15.5 C 0.109375 -15.519531 0.046875 -15.601562 0.046875 -15.75 C 0.046875 -15.894531 0.101562 -15.96875 0.21875 -15.96875 L 6.703125 -15.96875 C 6.828125 -15.96875 6.890625 -15.890625 6.890625 -15.734375 C 6.890625 -15.585938 6.828125 -15.515625 6.703125 -15.515625 C 6.191406 -15.460938 5.851562 -15.410156 5.6875 -15.359375 C 5.3125 -15.222656 5.125 -14.984375 5.125 -14.640625 C 5.125 -14.453125 5.164062 -14.289062 5.25 -14.15625 L 9.09375 -8.03125 C 9.175781 -7.90625 9.222656 -7.828125 9.234375 -7.796875 C 9.253906 -7.765625 9.296875 -7.75 9.359375 -7.75 C 9.421875 -7.75 9.523438 -7.859375 9.671875 -8.078125 L 12.71875 -13.28125 C 12.8125 -13.457031 12.914062 -13.648438 13.03125 -13.859375 C 13.144531 -14.066406 13.203125 -14.28125 13.203125 -14.5 C 13.203125 -15.050781 12.828125 -15.375 12.078125 -15.46875 C 11.804688 -15.507812 11.660156 -15.550781 11.640625 -15.59375 C 11.617188 -15.644531 11.609375 -15.703125 11.609375 -15.765625 C 11.609375 -15.898438 11.671875 -15.96875 11.796875 -15.96875 L 17.078125 -15.96875 C 17.191406 -15.96875 17.25 -15.914062 17.25 -15.8125 C 17.25 -15.707031 17.226562 -15.632812 17.1875 -15.59375 C 17.15625 -15.5625 17.109375 -15.535156 17.046875 -15.515625 C 16.992188 -15.492188 16.929688 -15.476562 16.859375 -15.46875 C 16.796875 -15.457031 16.648438 -15.425781 16.421875 -15.375 C 15.898438 -15.25 15.328125 -14.828125 14.703125 -14.109375 C 14.640625 -14.023438 14.601562 -13.976562 14.59375 -13.96875 L 10.125 -6.265625 L 10.125 -2.046875 C 10.125 -1.628906 10.238281 -1.300781 10.46875 -1.0625 C 10.695312 -0.832031 11.082031 -0.679688 11.625 -0.609375 C 12.175781 -0.546875 12.453125 -0.457031 12.453125 -0.34375 L 12.453125 -0.234375 C 12.453125 -0.078125 12.320312 0 12.0625 0 Z M 5.953125 0 "/></g></g></g><g fill="#3a4a3d" fill-opacity="1"><g transform="translate(347.94652, 207.678985)"><g><path d="M 6.03125 -0.09375 C 6.03125 -0.03125 6 0 5.9375 0 L 0.140625 0 C 0.0859375 0 0.0625 -0.03125 0.0625 -0.09375 L 0.0625 -0.359375 C 0.0625 -0.421875 0.109375 -0.453125 0.203125 -0.453125 C 1.234375 -0.492188 1.929688 -1.046875 2.296875 -2.109375 L 6.921875 -15.484375 C 6.929688 -15.503906 6.9375 -15.523438 6.9375 -15.546875 L 6.8125 -15.921875 C 6.8125 -15.953125 6.828125 -15.96875 6.859375 -15.96875 L 9.125 -15.96875 C 9.132812 -15.96875 9.148438 -15.960938 9.171875 -15.953125 C 9.203125 -15.941406 9.226562 -15.921875 9.25 -15.890625 L 14.03125 -2.4375 C 14.144531 -2.226562 14.234375 -2.039062 14.296875 -1.875 C 14.359375 -1.707031 14.429688 -1.554688 14.515625 -1.421875 C 14.691406 -1.117188 14.988281 -0.882812 15.40625 -0.71875 C 15.75 -0.539062 16.066406 -0.453125 16.359375 -0.453125 C 16.421875 -0.453125 16.453125 -0.414062 16.453125 -0.34375 L 16.453125 -0.09375 C 16.453125 -0.03125 16.421875 0 16.359375 0 L 9.421875 0 C 9.359375 0 9.328125 -0.03125 9.328125 -0.09375 L 9.328125 -0.359375 C 9.328125 -0.421875 9.46875 -0.457031 9.75 -0.46875 C 10.03125 -0.488281 10.265625 -0.503906 10.453125 -0.515625 C 11.492188 -0.628906 12.015625 -0.988281 12.015625 -1.59375 C 12.015625 -1.632812 12.007812 -1.6875 12 -1.75 L 10.28125 -6.578125 C 10.28125 -6.585938 10.265625 -6.617188 10.234375 -6.671875 C 10.148438 -6.929688 9.992188 -7.0625 9.765625 -7.0625 L 5.75 -7.0625 C 5.519531 -7.0625 5.34375 -6.9375 5.21875 -6.6875 C 5.1875 -6.632812 5.171875 -6.601562 5.171875 -6.59375 L 3.484375 -1.625 L 3.484375 -1.515625 C 3.484375 -1.316406 3.582031 -1.140625 3.78125 -0.984375 C 4.238281 -0.628906 4.859375 -0.453125 5.640625 -0.453125 L 5.9375 -0.453125 C 6 -0.453125 6.03125 -0.421875 6.03125 -0.359375 Z M 9.375 -8.3125 C 9.507812 -8.3125 9.578125 -8.367188 9.578125 -8.484375 C 9.578125 -8.546875 9.566406 -8.613281 9.546875 -8.6875 L 7.84375 -13.328125 C 7.769531 -13.535156 7.71875 -13.640625 7.6875 -13.640625 C 7.644531 -13.640625 7.582031 -13.535156 7.5 -13.328125 L 5.921875 -8.6875 C 5.890625 -8.613281 5.875 -8.53125 5.875 -8.4375 C 5.875 -8.351562 5.925781 -8.3125 6.03125 -8.3125 Z M 9.375 -8.3125 "/></g></g></g></svg>